<?xml version="1.0" encoding="UTF-8"?>
<svg xmlns="http://www.w3.org/2000/svg" xmlns:xlink="http://www.w3.org/1999/xlink" width="1043pt" height="183pt" viewBox="0 0 1043 183" version="1.1">
<g id="surface1">
<path style=" stroke:none;fill-rule:nonzero;fill:rgb(18.039216%,64.705884%,83.137256%);fill-opacity:1;" d="M 89.953125 162.558594 L 89.953125 145.132812 C 81.546875 144.902344 73.269531 142.664062 65.84375 138.625 L 57.136719 153.710938 C 67.214844 159.277344 78.507812 162.328125 89.953125 162.566406 Z M 89.953125 162.558594 "/>
<path style=" stroke:none;fill-rule:nonzero;fill:rgb(18.039216%,64.705884%,83.137256%);fill-opacity:1;" d="M 44.234375 116.976562 C 42.484375 113.746094 41.0625 110.296875 40.003906 106.710938 L 23.191406 111.21875 C 24.640625 116.273438 26.648438 121.132812 29.148438 125.679688 Z M 44.234375 116.976562 "/>
<path style=" stroke:none;fill-rule:nonzero;fill:rgb(18.039216%,64.705884%,83.137256%);fill-opacity:1;" d="M 142.765625 76.140625 L 159.578125 71.644531 C 157.96875 66.113281 155.730469 60.835938 152.871094 55.929688 C 149.929688 50.851562 146.492188 46.242188 142.644531 42.234375 L 130.320312 54.558594 C 133.128906 57.527344 135.636719 60.90625 137.796875 64.625 C 139.894531 68.246094 141.554688 72.113281 142.753906 76.140625 Z M 142.765625 76.140625 "/>
<path style=" stroke:none;fill-rule:nonzero;fill:rgb(18.039216%,64.705884%,83.137256%);fill-opacity:1;" d="M 29.21875 57.199219 C 26.691406 61.765625 24.679688 66.613281 23.222656 71.644531 L 40.035156 76.140625 C 41.105469 72.574219 42.535156 69.132812 44.28125 65.894531 L 29.207031 57.1875 Z M 29.21875 57.199219 "/>
<path style=" stroke:none;fill-rule:nonzero;fill:rgb(18.039216%,64.705884%,83.137256%);fill-opacity:1;" d="M 145.03125 92.863281 C 144.933594 96.53125 144.433594 100.210938 143.554688 103.878906 L 160.375 108.386719 C 161.65625 103.171875 162.355469 97.960938 162.464844 92.863281 Z M 145.03125 92.863281 "/>
<path style=" stroke:none;fill-rule:nonzero;fill:rgb(0%,45.09804%,63.921571%);fill-opacity:1;" d="M 54.609375 152.242188 L 63.316406 137.15625 C 56.136719 132.738281 50.082031 126.671875 45.683594 119.492188 L 30.597656 128.199219 C 36.546875 138.015625 44.800781 146.285156 54.609375 152.230469 Z M 54.609375 152.242188 "/>
<path style=" stroke:none;fill-rule:nonzero;fill:rgb(0%,45.09804%,63.921571%);fill-opacity:1;" d="M 106.707031 142.863281 L 111.214844 159.679688 C 122.292969 156.480469 132.417969 150.640625 140.664062 142.726562 L 128.339844 130.410156 C 122.261719 136.167969 114.835938 140.457031 106.707031 142.863281 Z M 106.707031 142.863281 "/>
<path style=" stroke:none;fill-rule:nonzero;fill:rgb(0%,45.09804%,63.921571%);fill-opacity:1;" d="M 128.257812 52.5 L 140.585938 40.183594 C 132.347656 32.296875 122.242188 26.492188 111.175781 23.292969 L 106.667969 40.105469 C 114.753906 42.503906 122.171875 46.753906 128.257812 52.5 Z M 128.257812 52.5 "/>
<path style=" stroke:none;fill-rule:nonzero;fill:rgb(0%,45.09804%,63.921571%);fill-opacity:1;" d="M 143.523438 78.960938 C 144.402344 82.617188 144.914062 86.296875 145.023438 89.957031 L 162.457031 89.957031 C 162.335938 84.859375 161.625 79.660156 160.328125 74.460938 L 143.523438 78.96875 Z M 143.523438 78.960938 "/>
<path style=" stroke:none;fill-rule:nonzero;fill:rgb(0%,45.09804%,63.921571%);fill-opacity:1;" d="M 63.375 45.792969 L 54.679688 30.707031 C 44.882812 36.648438 36.625 44.894531 30.6875 54.679688 L 45.761719 63.386719 C 50.171875 56.238281 56.21875 50.191406 63.386719 45.792969 Z M 63.375 45.792969 "/>
<path style=" stroke:none;fill-rule:nonzero;fill:rgb(18.039216%,64.705884%,83.137256%);fill-opacity:1;" d="M 65.902344 44.332031 C 69.5625 42.355469 73.480469 40.804688 77.558594 39.714844 C 81.71875 38.605469 85.875 37.984375 89.953125 37.867188 L 89.953125 20.433594 C 84.398438 20.554688 78.71875 21.382812 73.050781 22.902344 C 67.503906 24.382812 62.164062 26.511719 57.199219 29.25 L 65.902344 44.324219 Z M 65.902344 44.332031 "/>
<path style=" stroke:none;fill-rule:nonzero;fill:rgb(27.450982%,78.039217%,95.686275%);fill-opacity:1;" d="M 66.355469 179.332031 L 70.863281 162.507812 C 65.574219 160.976562 60.476562 158.886719 55.707031 156.25 L 47 171.332031 C 53.070312 174.710938 59.566406 177.402344 66.355469 179.332031 Z M 66.355469 179.332031 "/>
<path style=" stroke:none;fill-rule:nonzero;fill:rgb(27.450982%,78.039217%,95.686275%);fill-opacity:1;" d="M 129.628906 154.789062 L 138.324219 169.875 C 144.472656 166.195312 150.082031 161.9375 155.007812 157.167969 L 142.675781 144.835938 C 138.796875 148.5625 134.40625 151.902344 129.617188 154.789062 Z M 129.628906 154.789062 "/>
<path style=" stroke:none;fill-rule:nonzero;fill:rgb(27.450982%,78.039217%,95.686275%);fill-opacity:1;" d="M 2.820312 69.273438 C 1.058594 76.25 0.121094 83.226562 0 90.046875 L 17.421875 90.046875 C 17.542969 84.6875 18.28125 79.230469 19.632812 73.78125 Z M 2.820312 69.273438 "/>
<path style=" stroke:none;fill-rule:nonzero;fill:rgb(27.450982%,78.039217%,95.686275%);fill-opacity:1;" d="M 157.078125 155.101562 C 161.835938 150.171875 166.105469 144.574219 169.785156 138.425781 L 154.699219 129.71875 C 151.808594 134.507812 148.472656 138.886719 144.753906 142.773438 L 157.078125 155.109375 Z M 157.078125 155.101562 "/>
<path style=" stroke:none;fill-rule:nonzero;fill:rgb(27.450982%,78.039217%,95.686275%);fill-opacity:1;" d="M 92.875 165.464844 L 92.875 182.898438 C 99.699219 182.777344 106.679688 181.828125 113.644531 180.082031 L 109.136719 163.257812 C 103.6875 164.605469 98.230469 165.347656 92.875 165.464844 Z M 92.875 165.464844 "/>
<path style=" stroke:none;fill-rule:nonzero;fill:rgb(27.450982%,78.039217%,95.686275%);fill-opacity:1;" d="M 169.785156 44.5625 C 166.074219 38.394531 161.804688 32.796875 157.066406 27.898438 L 144.742188 40.226562 C 148.433594 44.082031 151.769531 48.460938 154.679688 53.269531 L 169.773438 44.5625 Z M 169.785156 44.5625 "/>
<path style=" stroke:none;fill-rule:nonzero;fill:rgb(27.450982%,78.039217%,95.686275%);fill-opacity:1;" d="M 163.164062 73.78125 C 164.523438 79.230469 165.265625 84.6875 165.386719 90.046875 L 182.816406 90.046875 C 182.699219 83.199219 181.75 76.230469 179.988281 69.265625 Z M 163.164062 73.78125 "/>
<path style=" stroke:none;fill-rule:nonzero;fill:rgb(27.450982%,78.039217%,95.686275%);fill-opacity:1;" d="M 27.800781 25.839844 L 40.125 38.164062 C 44.011719 34.4375 48.390625 31.097656 53.179688 28.21875 L 44.472656 13.136719 C 38.316406 16.824219 32.71875 21.082031 27.800781 25.851562 Z M 27.800781 25.839844 "/>
<path style=" stroke:none;fill-rule:nonzero;fill:rgb(27.450982%,78.039217%,95.686275%);fill-opacity:1;" d="M 109.128906 19.722656 L 113.636719 2.910156 C 106.65625 1.160156 99.679688 0.210938 92.863281 0.0898438 L 92.863281 17.515625 C 98.222656 17.625 103.679688 18.363281 109.128906 19.722656 Z M 109.128906 19.722656 "/>
<path style=" stroke:none;fill-rule:nonzero;fill:rgb(27.450982%,78.039217%,95.686275%);fill-opacity:1;" d="M 92.875 40.773438 L 92.875 58.207031 C 110.035156 58.949219 123.902344 72.792969 124.679688 89.957031 L 142.113281 89.957031 C 141.3125 63.175781 119.644531 41.535156 92.875 40.773438 Z M 92.875 40.773438 "/>
<path style=" stroke:none;fill-rule:nonzero;fill:rgb(27.450982%,78.039217%,95.686275%);fill-opacity:1;" d="M 64.773438 134.628906 L 73.480469 119.542969 C 63.953125 113.445312 58.085938 102.832031 58.085938 91.496094 C 58.085938 86.136719 59.40625 80.839844 61.90625 76.070312 L 46.820312 67.355469 C 42.792969 74.78125 40.675781 83.089844 40.675781 91.496094 C 40.675781 109.019531 49.871094 125.410156 64.785156 134.628906 Z M 64.773438 134.628906 "/>
<path style=" stroke:none;fill-rule:nonzero;fill:rgb(27.450982%,78.039217%,95.686275%);fill-opacity:1;" d="M 89.953125 142.214844 L 89.953125 124.78125 C 85.105469 124.5625 80.339844 123.273438 76.011719 121.011719 L 67.304688 136.097656 C 74.289062 139.886719 82.058594 141.984375 89.953125 142.226562 Z M 89.953125 142.214844 "/>
<path style=" stroke:none;fill-rule:nonzero;fill:rgb(3.529412%,54.11765%,72.941178%);fill-opacity:1;" d="M 44.484375 169.863281 L 53.1875 154.78125 C 48.390625 151.882812 44.011719 148.542969 40.132812 144.824219 L 27.808594 157.160156 C 32.738281 161.917969 38.335938 166.1875 44.484375 169.863281 Z M 44.484375 169.863281 "/>
<path style=" stroke:none;fill-rule:nonzero;fill:rgb(3.529412%,54.11765%,72.941178%);fill-opacity:1;" d="M 26.648438 127.199219 C 24.019531 122.433594 21.921875 117.34375 20.382812 112.035156 L 3.570312 116.546875 C 5.507812 123.332031 8.1875 129.828125 11.566406 135.90625 Z M 26.648438 127.199219 "/>
<path style=" stroke:none;fill-rule:nonzero;fill:rgb(3.529412%,54.11765%,72.941178%);fill-opacity:1;" d="M 111.945312 162.507812 L 116.453125 179.332031 C 123.222656 177.410156 129.71875 174.722656 135.804688 171.332031 L 127.101562 156.25 C 122.332031 158.878906 117.242188 160.988281 111.945312 162.515625 Z M 111.945312 162.507812 "/>
<path style=" stroke:none;fill-rule:nonzero;fill:rgb(3.529412%,54.11765%,72.941178%);fill-opacity:1;" d="M 142.683594 38.15625 L 155.007812 25.832031 C 150.101562 21.082031 144.503906 16.8125 138.335938 13.125 L 129.640625 28.210938 C 134.425781 31.097656 138.804688 34.4375 142.695312 38.164062 Z M 142.683594 38.15625 "/>
<path style=" stroke:none;fill-rule:nonzero;fill:rgb(3.529412%,54.11765%,72.941178%);fill-opacity:1;" d="M 165.386719 92.953125 C 165.265625 98.28125 164.535156 103.738281 163.175781 109.21875 L 179.988281 113.726562 C 181.75 106.757812 182.699219 99.78125 182.816406 92.945312 L 165.386719 92.945312 Z M 165.386719 92.953125 "/>
<path style=" stroke:none;fill-rule:nonzero;fill:rgb(3.529412%,54.11765%,72.941178%);fill-opacity:1;" d="M 11.574219 47.09375 C 8.195312 53.179688 5.507812 59.675781 3.578125 66.453125 L 20.390625 70.964844 C 21.929688 65.65625 24.03125 60.566406 26.660156 55.800781 Z M 11.574219 47.09375 "/>
<path style=" stroke:none;fill-rule:nonzero;fill:rgb(3.529412%,54.11765%,72.941178%);fill-opacity:1;" d="M 47 11.675781 L 55.707031 26.75 C 60.496094 24.113281 65.585938 22.003906 70.871094 20.484375 L 66.363281 3.667969 C 59.578125 5.597656 53.070312 8.289062 47 11.675781 Z M 47 11.675781 "/>
<path style=" stroke:none;fill-rule:nonzero;fill:rgb(3.529412%,54.11765%,72.941178%);fill-opacity:1;" d="M 124.691406 92.863281 C 123.953125 110.15625 110.085938 124.023438 92.875 124.773438 L 92.875 142.203125 C 119.722656 141.433594 141.414062 119.714844 142.125 92.863281 Z M 124.691406 92.863281 "/>
<path style=" stroke:none;fill-rule:nonzero;fill:rgb(3.529412%,54.11765%,72.941178%);fill-opacity:1;" d="M 89.953125 58.207031 L 89.953125 40.773438 C 73 41.273438 57.257812 50.359375 48.289062 64.835938 L 63.386719 73.550781 C 69.234375 64.4375 79.199219 58.6875 89.964844 58.207031 Z M 89.953125 58.207031 "/>
<path style=" stroke:none;fill-rule:nonzero;fill:rgb(0%,45.09804%,63.921571%);fill-opacity:1;" d="M 225.351562 22.210938 L 244.394531 22.210938 L 244.394531 161.085938 L 225.351562 161.085938 Z M 225.351562 22.210938 "/>
<path style=" stroke:none;fill-rule:nonzero;fill:rgb(0%,45.09804%,63.921571%);fill-opacity:1;" d="M 327.53125 22.210938 L 272.214844 22.210938 L 272.214844 161.085938 L 327.53125 161.085938 C 366.984375 161.085938 392.484375 133.828125 392.484375 91.644531 C 392.484375 49.460938 366.984375 22.210938 327.53125 22.210938 Z M 291.253906 41.074219 L 327.03125 41.074219 C 355.21875 41.074219 373.441406 60.925781 373.441406 91.644531 C 373.441406 122.363281 355.230469 142.214844 327.03125 142.214844 L 291.253906 142.214844 Z M 291.253906 41.074219 "/>
<path style=" stroke:none;fill-rule:nonzero;fill:rgb(0%,45.09804%,63.921571%);fill-opacity:1;" d="M 482.421875 128.910156 L 428.75 22.210938 L 411.976562 22.210938 L 411.976562 161.085938 L 431.019531 161.085938 L 431.019531 67.246094 L 476.082031 156.929688 L 488.589844 156.929688 L 533.820312 66.90625 L 533.820312 161.085938 L 552.863281 161.085938 L 552.863281 22.210938 L 536.078125 22.210938 Z M 482.421875 128.910156 "/>
<path style=" stroke:none;fill-rule:nonzero;fill:rgb(0%,45.09804%,63.921571%);fill-opacity:1;" d="M 582.402344 79.25 L 585.460938 79.25 L 585.460938 112.246094 L 582.402344 112.246094 Z M 582.402344 79.25 "/>
<path style=" stroke:none;fill-rule:nonzero;fill:rgb(0%,45.09804%,63.921571%);fill-opacity:1;" d="M 619.136719 112.246094 L 621.785156 112.246094 L 621.785156 79.25 L 618.726562 79.25 L 618.726562 106.867188 L 596.84375 79.359375 L 596.753906 79.25 L 594.105469 79.25 L 594.105469 112.246094 L 597.164062 112.246094 L 597.164062 84.65625 L 619.046875 112.125 Z M 619.136719 112.246094 "/>
<path style=" stroke:none;fill-rule:nonzero;fill:rgb(0%,45.09804%,63.921571%);fill-opacity:1;" d="M 641.109375 112.867188 C 648.503906 112.867188 653.28125 109.4375 653.28125 104.128906 C 653.28125 97.914062 646.335938 95.804688 641.277344 94.253906 L 641.117188 94.203125 C 636.039062 92.605469 631.652344 91.226562 631.652344 87.226562 C 631.652344 83.699219 634.949219 81.507812 640.269531 81.507812 C 645.894531 81.507812 649.683594 83.90625 649.683594 87.476562 L 649.683594 87.988281 L 652.703125 87.988281 L 652.703125 87.308594 C 652.703125 82.269531 647.476562 78.609375 640.269531 78.609375 C 633.0625 78.609375 628.464844 82.058594 628.464844 87.386719 C 628.464844 93.523438 634.980469 95.535156 640.21875 97.144531 C 646.15625 98.941406 650.054688 100.410156 650.054688 104.238281 C 650.054688 107.769531 646.625 109.957031 641.097656 109.957031 C 635.199219 109.957031 631.230469 107.558594 631.230469 103.988281 L 631.230469 103.519531 L 628.214844 103.519531 L 628.214844 104.160156 C 628.214844 109.277344 633.511719 112.847656 641.097656 112.847656 Z M 641.109375 112.867188 "/>
<path style=" stroke:none;fill-rule:nonzero;fill:rgb(0%,45.09804%,63.921571%);fill-opacity:1;" d="M 667.417969 112.246094 L 670.464844 112.246094 L 670.464844 82.257812 L 682.183594 82.257812 L 682.183594 79.25 L 655.742188 79.25 L 655.742188 82.257812 L 667.417969 82.257812 Z M 667.417969 112.246094 "/>
<path style=" stroke:none;fill-rule:nonzero;fill:rgb(0%,45.09804%,63.921571%);fill-opacity:1;" d="M 687.328125 79.25 L 690.386719 79.25 L 690.386719 112.246094 L 687.328125 112.246094 Z M 687.328125 79.25 "/>
<path style=" stroke:none;fill-rule:nonzero;fill:rgb(0%,45.09804%,63.921571%);fill-opacity:1;" d="M 695.507812 82.257812 L 707.171875 82.257812 L 707.171875 112.246094 L 710.230469 112.246094 L 710.230469 82.257812 L 721.9375 82.257812 L 721.9375 79.25 L 695.507812 79.25 Z M 695.507812 82.257812 "/>
<path style=" stroke:none;fill-rule:nonzero;fill:rgb(0%,45.09804%,63.921571%);fill-opacity:1;" d="M 754.402344 99.691406 L 754.402344 79.25 L 751.34375 79.25 L 751.34375 99.601562 C 751.34375 105.917969 747.207031 109.847656 740.519531 109.847656 C 733.832031 109.847656 729.691406 105.917969 729.691406 99.601562 L 729.691406 79.25 L 726.632812 79.25 L 726.632812 99.691406 C 726.632812 107.6875 732.082031 112.855469 740.519531 112.855469 C 748.957031 112.855469 754.402344 107.6875 754.402344 99.691406 Z M 754.402344 99.691406 "/>
<path style=" stroke:none;fill-rule:nonzero;fill:rgb(0%,45.09804%,63.921571%);fill-opacity:1;" d="M 785.53125 79.25 L 759.089844 79.25 L 759.089844 82.257812 L 770.765625 82.257812 L 770.765625 112.246094 L 773.816406 112.246094 L 773.816406 82.257812 L 785.53125 82.257812 Z M 785.53125 79.25 "/>
<path style=" stroke:none;fill-rule:nonzero;fill:rgb(0%,45.09804%,63.921571%);fill-opacity:1;" d="M 790.679688 112.246094 L 813.539062 112.246094 L 813.539062 109.226562 L 793.738281 109.226562 L 793.738281 97.503906 L 810.601562 97.503906 L 810.601562 94.574219 L 793.738281 94.574219 L 793.738281 82.257812 L 813.539062 82.257812 L 813.539062 79.25 L 790.679688 79.25 Z M 790.679688 112.246094 "/>
<path style=" stroke:none;fill-rule:nonzero;fill:rgb(0%,45.09804%,63.921571%);fill-opacity:1;" d="M 837.570312 98.582031 L 854.015625 98.582031 L 854.015625 95.644531 L 837.570312 95.644531 L 837.570312 82.257812 L 856.542969 82.257812 L 856.542969 79.25 L 834.511719 79.25 L 834.511719 112.246094 L 837.570312 112.246094 Z M 837.570312 98.582031 "/>
<path style=" stroke:none;fill-rule:nonzero;fill:rgb(0%,45.09804%,63.921571%);fill-opacity:1;" d="M 894.027344 95.742188 C 894.027344 86.308594 886.332031 78.621094 876.875 78.621094 C 867.417969 78.621094 859.660156 86.308594 859.660156 95.742188 C 859.660156 105.179688 867.378906 112.855469 876.875 112.855469 C 886.371094 112.855469 894.027344 105.179688 894.027344 95.742188 Z M 876.875 109.796875 C 869.089844 109.796875 862.761719 103.492188 862.761719 95.742188 C 862.761719 87.996094 869.089844 81.679688 876.875 81.679688 C 884.664062 81.679688 890.929688 87.988281 890.929688 95.742188 C 890.929688 103.5 884.621094 109.796875 876.875 109.796875 Z M 876.875 109.796875 "/>
<path style=" stroke:none;fill-rule:nonzero;fill:rgb(0%,45.09804%,63.921571%);fill-opacity:1;" d="M 927.726562 112.246094 L 919.109375 100.140625 C 923.566406 98.640625 926.316406 94.785156 926.316406 89.976562 C 926.316406 83.65625 921.648438 79.25 914.960938 79.25 L 900.367188 79.25 L 900.367188 112.246094 L 903.425781 112.246094 L 903.425781 100.78125 L 914.960938 100.78125 C 915.238281 100.78125 915.519531 100.78125 915.808594 100.75 L 923.976562 112.238281 L 927.707031 112.238281 Z M 903.433594 82.1875 L 914.890625 82.1875 C 920.667969 82.1875 923.296875 86.246094 923.296875 90.015625 C 923.296875 95.402344 918.9375 97.851562 914.890625 97.851562 L 903.433594 97.851562 Z M 903.433594 82.1875 "/>
<path style=" stroke:none;fill-rule:nonzero;fill:rgb(0%,45.09804%,63.921571%);fill-opacity:1;" d="M 595.367188 127.839844 L 582.402344 127.839844 L 582.402344 160.835938 L 595.367188 160.835938 C 604.703125 160.835938 610.75 154.359375 610.75 144.34375 C 610.75 134.328125 604.710938 127.839844 595.367188 127.839844 Z M 585.460938 130.859375 L 595.246094 130.859375 C 602.804688 130.859375 607.691406 136.15625 607.691406 144.34375 C 607.691406 152.53125 602.804688 157.820312 595.246094 157.820312 L 585.460938 157.820312 Z M 585.460938 130.859375 "/>
<path style=" stroke:none;fill-rule:nonzero;fill:rgb(0%,45.09804%,63.921571%);fill-opacity:1;" d="M 617.308594 127.839844 L 620.367188 127.839844 L 620.367188 160.835938 L 617.308594 160.835938 Z M 617.308594 127.839844 "/>
<path style=" stroke:none;fill-rule:nonzero;fill:rgb(0%,45.09804%,63.921571%);fill-opacity:1;" d="M 639.859375 142.855469 L 639.699219 142.804688 C 634.621094 141.207031 630.242188 139.824219 630.242188 135.828125 C 630.242188 132.300781 633.550781 130.109375 638.867188 130.109375 C 644.496094 130.109375 648.285156 132.5 648.285156 136.078125 L 648.285156 136.585938 L 651.304688 136.585938 L 651.304688 135.898438 C 651.304688 130.871094 646.074219 127.210938 638.878906 127.210938 C 631.683594 127.210938 627.074219 130.660156 627.074219 135.988281 C 627.074219 142.136719 633.589844 144.132812 638.828125 145.742188 C 644.777344 147.542969 648.664062 149.011719 648.664062 152.839844 C 648.664062 156.371094 645.238281 158.558594 639.707031 158.558594 C 633.800781 158.558594 629.84375 156.167969 629.84375 152.601562 L 629.84375 152.121094 L 626.824219 152.121094 L 626.824219 152.761719 C 626.824219 157.878906 632.121094 161.449219 639.707031 161.449219 C 647.296875 161.449219 651.894531 158.019531 651.894531 152.710938 C 651.894531 146.492188 644.945312 144.375 639.878906 142.835938 Z M 639.859375 142.855469 "/>
<path style=" stroke:none;fill-rule:nonzero;fill:rgb(0%,45.09804%,63.921571%);fill-opacity:1;" d="M 658.230469 160.835938 L 681.101562 160.835938 L 681.101562 157.820312 L 661.289062 157.820312 L 661.289062 146.105469 L 678.144531 146.105469 L 678.144531 143.164062 L 661.289062 143.164062 L 661.289062 130.859375 L 681.101562 130.859375 L 681.101562 127.839844 L 658.230469 127.839844 Z M 658.230469 160.835938 "/>
<path style=" stroke:none;fill-rule:nonzero;fill:rgb(0%,45.09804%,63.921571%);fill-opacity:1;" d="M 701.652344 127.839844 L 698.605469 127.839844 L 683.460938 160.835938 L 686.871094 160.835938 L 690.148438 153.53125 L 710.101562 153.53125 L 713.417969 160.835938 L 716.789062 160.835938 L 701.722656 128.011719 L 701.644531 127.832031 Z M 708.75 150.601562 L 691.507812 150.601562 L 700.132812 131.550781 Z M 708.75 150.601562 "/>
<path style=" stroke:none;fill-rule:nonzero;fill:rgb(0%,45.09804%,63.921571%);fill-opacity:1;" d="M 730.972656 142.855469 L 730.8125 142.804688 C 725.734375 141.207031 721.355469 139.824219 721.355469 135.828125 C 721.355469 132.300781 724.65625 130.109375 729.972656 130.109375 C 735.601562 130.109375 739.390625 132.5 739.390625 136.078125 L 739.390625 136.585938 L 742.40625 136.585938 L 742.40625 135.898438 C 742.40625 130.871094 737.179688 127.210938 729.972656 127.210938 C 722.765625 127.210938 718.167969 130.660156 718.167969 135.988281 C 718.167969 142.136719 724.683594 144.132812 729.921875 145.742188 C 735.859375 147.542969 739.757812 149.011719 739.757812 152.839844 C 739.757812 156.371094 736.332031 158.558594 730.800781 158.558594 C 724.90625 158.558594 720.9375 156.167969 720.9375 152.601562 L 720.9375 152.121094 L 717.917969 152.121094 L 717.917969 152.761719 C 717.917969 157.878906 723.214844 161.449219 730.800781 161.449219 C 738.390625 161.449219 742.976562 158.019531 742.976562 152.710938 C 742.976562 146.492188 736.03125 144.375 730.972656 142.835938 Z M 730.972656 142.855469 "/>
<path style=" stroke:none;fill-rule:nonzero;fill:rgb(0%,45.09804%,63.921571%);fill-opacity:1;" d="M 749.335938 160.835938 L 772.207031 160.835938 L 772.207031 157.820312 L 752.402344 157.820312 L 752.402344 146.105469 L 769.257812 146.105469 L 769.257812 143.164062 L 752.402344 143.164062 L 752.402344 130.859375 L 772.207031 130.859375 L 772.207031 127.839844 L 749.335938 127.839844 Z M 749.335938 160.835938 "/>
<path style=" stroke:none;fill-rule:nonzero;fill:rgb(0%,45.09804%,63.921571%);fill-opacity:1;" d="M 809.921875 155.539062 L 796.066406 128.011719 L 795.988281 127.839844 L 793.167969 127.839844 L 793.167969 160.835938 L 796.226562 160.835938 L 796.226562 134.65625 L 808.773438 159.628906 L 808.863281 159.796875 L 810.929688 159.796875 L 823.605469 134.578125 L 823.605469 160.835938 L 826.664062 160.835938 L 826.664062 127.839844 L 823.847656 127.839844 Z M 809.921875 155.539062 "/>
<path style=" stroke:none;fill-rule:nonzero;fill:rgb(0%,45.09804%,63.921571%);fill-opacity:1;" d="M 850.175781 127.222656 C 840.691406 127.222656 832.960938 134.898438 832.960938 144.34375 C 832.960938 153.789062 840.679688 161.457031 850.175781 161.457031 C 859.671875 161.457031 867.339844 153.78125 867.339844 144.34375 C 867.339844 134.90625 859.640625 127.222656 850.175781 127.222656 Z M 850.175781 158.398438 C 842.390625 158.398438 836.0625 152.089844 836.0625 144.34375 C 836.0625 136.597656 842.390625 130.28125 850.175781 130.28125 C 857.960938 130.28125 864.242188 136.585938 864.242188 144.34375 C 864.242188 152.101562 857.933594 158.398438 850.175781 158.398438 Z M 850.175781 158.398438 "/>
<path style=" stroke:none;fill-rule:nonzero;fill:rgb(0%,45.09804%,63.921571%);fill-opacity:1;" d="M 886.660156 127.839844 L 873.6875 127.839844 L 873.6875 160.835938 L 886.660156 160.835938 C 895.996094 160.835938 902.035156 154.359375 902.035156 144.34375 C 902.035156 134.328125 895.996094 127.839844 886.660156 127.839844 Z M 876.753906 130.859375 L 886.542969 130.859375 C 894.097656 130.859375 898.988281 136.15625 898.988281 144.34375 C 898.988281 152.53125 894.109375 157.820312 886.542969 157.820312 L 876.753906 157.820312 Z M 876.753906 130.859375 "/>
<path style=" stroke:none;fill-rule:nonzero;fill:rgb(0%,45.09804%,63.921571%);fill-opacity:1;" d="M 908.59375 160.835938 L 931.464844 160.835938 L 931.464844 157.820312 L 911.660156 157.820312 L 911.660156 146.105469 L 928.515625 146.105469 L 928.515625 143.164062 L 911.660156 143.164062 L 911.660156 130.859375 L 931.464844 130.859375 L 931.464844 127.839844 L 908.59375 127.839844 Z M 908.59375 160.835938 "/>
<path style=" stroke:none;fill-rule:nonzero;fill:rgb(0%,45.09804%,63.921571%);fill-opacity:1;" d="M 941.128906 127.839844 L 938.070312 127.839844 L 938.070312 160.835938 L 959.851562 160.835938 L 959.851562 157.820312 L 941.128906 157.820312 Z M 941.128906 127.839844 "/>
<path style=" stroke:none;fill-rule:nonzero;fill:rgb(0%,45.09804%,63.921571%);fill-opacity:1;" d="M 965.261719 127.839844 L 968.320312 127.839844 L 968.320312 160.835938 L 965.261719 160.835938 Z M 965.261719 127.839844 "/>
<path style=" stroke:none;fill-rule:nonzero;fill:rgb(0%,45.09804%,63.921571%);fill-opacity:1;" d="M 1001.585938 155.46875 L 979.703125 127.960938 L 979.613281 127.839844 L 976.957031 127.839844 L 976.957031 160.835938 L 980.015625 160.835938 L 980.015625 133.25 L 1001.894531 160.71875 L 1001.984375 160.835938 L 1004.636719 160.835938 L 1004.636719 127.839844 L 1001.585938 127.839844 Z M 1001.585938 155.46875 "/>
<path style=" stroke:none;fill-rule:nonzero;fill:rgb(0%,45.09804%,63.921571%);fill-opacity:1;" d="M 1028.226562 143.574219 L 1028.226562 146.34375 L 1040.070312 146.34375 L 1040.070312 151.691406 C 1037.492188 155.898438 1033.042969 158.398438 1028.164062 158.398438 C 1020.378906 158.398438 1014.050781 152.089844 1014.050781 144.34375 C 1014.050781 136.597656 1020.378906 130.28125 1028.164062 130.28125 C 1032.535156 130.28125 1036.742188 132.410156 1039.421875 135.96875 L 1039.601562 136.207031 L 1042.140625 134.449219 L 1041.960938 134.199219 C 1038.730469 129.839844 1033.574219 127.230469 1028.175781 127.230469 C 1018.679688 127.230469 1010.960938 134.90625 1010.960938 144.355469 C 1010.960938 153.800781 1018.679688 161.46875 1028.175781 161.46875 C 1032.964844 161.46875 1037.390625 159.398438 1040.199219 155.890625 L 1040.199219 160.847656 L 1043.019531 160.847656 L 1043.019531 143.585938 L 1028.246094 143.585938 Z M 1028.226562 143.574219 "/>
</g>
</svg>
